<mxfile host="app.diagrams.net" modified="2022-02-28T09:13:30.302Z" agent="5.0 (Windows NT 10.0; Win64; x64) AppleWebKit/537.36 (KHTML, like Gecko) Chrome/97.0.4692.99 Safari/537.36" etag="me7tr2rZ9f5TEqQaieQR" version="16.6.4" type="github">
  <diagram id="wv3CKyiRIyC83f-S4AsD" name="Page-1">
    <mxGraphModel dx="1182" dy="675" grid="1" gridSize="10" guides="1" tooltips="1" connect="1" arrows="1" fold="1" page="1" pageScale="1" pageWidth="827" pageHeight="1169" math="0" shadow="0">
      <root>
        <mxCell id="0" />
        <mxCell id="1" parent="0" />
        <mxCell id="BlAbsp78SDBVKc19avHf-1" style="edgeStyle=orthogonalEdgeStyle;rounded=0;orthogonalLoop=1;jettySize=auto;html=1;entryX=0.25;entryY=1;entryDx=0;entryDy=0;" edge="1" parent="1" source="BlAbsp78SDBVKc19avHf-46" target="BlAbsp78SDBVKc19avHf-30">
          <mxGeometry relative="1" as="geometry">
            <Array as="points">
              <mxPoint x="596" y="708" />
              <mxPoint x="582" y="708" />
            </Array>
          </mxGeometry>
        </mxCell>
        <mxCell id="BlAbsp78SDBVKc19avHf-2" value="" style="rounded=1;whiteSpace=wrap;html=1;fillColor=#ffffff;" vertex="1" parent="1">
          <mxGeometry x="523.46" y="563.75" width="142.54" height="125" as="geometry" />
        </mxCell>
        <mxCell id="BlAbsp78SDBVKc19avHf-3" style="edgeStyle=orthogonalEdgeStyle;rounded=0;orthogonalLoop=1;jettySize=auto;html=1;" edge="1" parent="1" source="BlAbsp78SDBVKc19avHf-4" target="BlAbsp78SDBVKc19avHf-31">
          <mxGeometry relative="1" as="geometry">
            <Array as="points">
              <mxPoint x="595" y="700" />
              <mxPoint x="323" y="700" />
            </Array>
          </mxGeometry>
        </mxCell>
        <mxCell id="BlAbsp78SDBVKc19avHf-4" value="" style="rounded=1;whiteSpace=wrap;html=1;fillColor=#ffffff;" vertex="1" parent="1">
          <mxGeometry x="490" y="730" width="210" height="180" as="geometry" />
        </mxCell>
        <mxCell id="BlAbsp78SDBVKc19avHf-5" style="edgeStyle=orthogonalEdgeStyle;rounded=0;orthogonalLoop=1;jettySize=auto;html=1;entryX=0.25;entryY=1;entryDx=0;entryDy=0;" edge="1" parent="1" source="BlAbsp78SDBVKc19avHf-7" target="BlAbsp78SDBVKc19avHf-29">
          <mxGeometry relative="1" as="geometry" />
        </mxCell>
        <mxCell id="BlAbsp78SDBVKc19avHf-6" style="edgeStyle=orthogonalEdgeStyle;rounded=0;orthogonalLoop=1;jettySize=auto;html=1;" edge="1" parent="1" source="BlAbsp78SDBVKc19avHf-7" target="BlAbsp78SDBVKc19avHf-32">
          <mxGeometry relative="1" as="geometry">
            <Array as="points">
              <mxPoint x="440" y="820" />
              <mxPoint x="440" y="660" />
              <mxPoint x="595" y="660" />
            </Array>
          </mxGeometry>
        </mxCell>
        <mxCell id="BlAbsp78SDBVKc19avHf-7" value="" style="rounded=1;whiteSpace=wrap;html=1;fillColor=#ffffff;" vertex="1" parent="1">
          <mxGeometry x="210" y="730" width="210" height="180" as="geometry" />
        </mxCell>
        <mxCell id="BlAbsp78SDBVKc19avHf-8" style="edgeStyle=orthogonalEdgeStyle;rounded=0;orthogonalLoop=1;jettySize=auto;html=1;entryX=1;entryY=1;entryDx=0;entryDy=0;" edge="1" parent="1" source="BlAbsp78SDBVKc19avHf-2" target="BlAbsp78SDBVKc19avHf-28">
          <mxGeometry relative="1" as="geometry" />
        </mxCell>
        <mxCell id="BlAbsp78SDBVKc19avHf-9" style="edgeStyle=orthogonalEdgeStyle;rounded=0;orthogonalLoop=1;jettySize=auto;html=1;entryX=0.398;entryY=0.991;entryDx=0;entryDy=0;entryPerimeter=0;" edge="1" parent="1" source="BlAbsp78SDBVKc19avHf-10" target="BlAbsp78SDBVKc19avHf-28">
          <mxGeometry relative="1" as="geometry" />
        </mxCell>
        <mxCell id="BlAbsp78SDBVKc19avHf-10" value="" style="rounded=1;whiteSpace=wrap;html=1;fillColor=#ffffff;" vertex="1" parent="1">
          <mxGeometry x="240" y="563.75" width="142.54" height="125" as="geometry" />
        </mxCell>
        <mxCell id="BlAbsp78SDBVKc19avHf-11" value="C-Pi: Production Layer" style="text;html=1;strokeColor=none;fillColor=none;align=center;verticalAlign=middle;whiteSpace=wrap;rounded=0;fontSize=33;" vertex="1" parent="1">
          <mxGeometry x="140" y="40" width="560" height="20" as="geometry" />
        </mxCell>
        <mxCell id="BlAbsp78SDBVKc19avHf-12" value="" style="endArrow=classic;html=1;exitX=1;exitY=0;exitDx=0;exitDy=0;" edge="1" parent="1" source="BlAbsp78SDBVKc19avHf-40">
          <mxGeometry width="50" height="50" relative="1" as="geometry">
            <mxPoint x="400" y="380" as="sourcePoint" />
            <mxPoint x="413.08706186856625" y="194.90074741740477" as="targetPoint" />
          </mxGeometry>
        </mxCell>
        <mxCell id="BlAbsp78SDBVKc19avHf-13" value="APP Server - IIS&lt;br&gt;&lt;span style=&quot;font-size: 11.0pt ; line-height: 107% ; font-family: &amp;#34;calibri&amp;#34; , sans-serif&quot;&gt;APPBIPOEMSPROD&lt;/span&gt;" style="text;html=1;strokeColor=none;fillColor=none;align=center;verticalAlign=middle;whiteSpace=wrap;rounded=0;" vertex="1" parent="1">
          <mxGeometry x="370" y="390" width="170" height="20" as="geometry" />
        </mxCell>
        <mxCell id="BlAbsp78SDBVKc19avHf-14" value="" style="group" vertex="1" connectable="0" parent="1">
          <mxGeometry x="100" y="462" width="121" height="130" as="geometry" />
        </mxCell>
        <mxCell id="BlAbsp78SDBVKc19avHf-15" value="" style="rounded=1;whiteSpace=wrap;html=1;fillColor=#dae8fc;strokeColor=#6c8ebf;" vertex="1" parent="BlAbsp78SDBVKc19avHf-14">
          <mxGeometry x="1" y="-44" width="120" height="130" as="geometry" />
        </mxCell>
        <mxCell id="BlAbsp78SDBVKc19avHf-16" value="" style="aspect=fixed;perimeter=ellipsePerimeter;html=1;align=center;shadow=0;dashed=0;spacingTop=3;image;image=img/lib/active_directory/vista_client.svg;" vertex="1" parent="BlAbsp78SDBVKc19avHf-14">
          <mxGeometry x="27" y="-5" width="38" height="50" as="geometry" />
        </mxCell>
        <mxCell id="BlAbsp78SDBVKc19avHf-17" value="" style="aspect=fixed;perimeter=ellipsePerimeter;html=1;align=center;shadow=0;dashed=0;spacingTop=3;image;image=img/lib/active_directory/vista_client.svg;" vertex="1" parent="BlAbsp78SDBVKc19avHf-14">
          <mxGeometry x="42" y="10" width="38" height="50" as="geometry" />
        </mxCell>
        <mxCell id="BlAbsp78SDBVKc19avHf-18" value="" style="aspect=fixed;perimeter=ellipsePerimeter;html=1;align=center;shadow=0;dashed=0;spacingTop=3;image;image=img/lib/active_directory/vista_client.svg;" vertex="1" parent="BlAbsp78SDBVKc19avHf-14">
          <mxGeometry x="57" y="25" width="38" height="50" as="geometry" />
        </mxCell>
        <mxCell id="BlAbsp78SDBVKc19avHf-19" value="" style="aspect=fixed;perimeter=ellipsePerimeter;html=1;align=center;shadow=0;dashed=0;spacingTop=3;image;image=img/lib/active_directory/users.svg;" vertex="1" parent="BlAbsp78SDBVKc19avHf-14">
          <mxGeometry x="9" y="38" width="33" height="50" as="geometry" />
        </mxCell>
        <mxCell id="BlAbsp78SDBVKc19avHf-20" value="Users from workstation via Chrome" style="text;html=1;strokeColor=none;fillColor=none;align=center;verticalAlign=middle;whiteSpace=wrap;rounded=0;" vertex="1" parent="BlAbsp78SDBVKc19avHf-14">
          <mxGeometry y="-30" width="120" height="20" as="geometry" />
        </mxCell>
        <mxCell id="BlAbsp78SDBVKc19avHf-21" value="" style="endArrow=classic;html=1;exitX=0.95;exitY=0.031;exitDx=0;exitDy=0;entryX=0.25;entryY=0;entryDx=0;entryDy=0;exitPerimeter=0;" edge="1" parent="1" source="BlAbsp78SDBVKc19avHf-15" target="BlAbsp78SDBVKc19avHf-28">
          <mxGeometry width="50" height="50" relative="1" as="geometry">
            <mxPoint x="400" y="360" as="sourcePoint" />
            <mxPoint x="420" y="500" as="targetPoint" />
          </mxGeometry>
        </mxCell>
        <mxCell id="BlAbsp78SDBVKc19avHf-22" value="" style="aspect=fixed;perimeter=ellipsePerimeter;html=1;align=center;shadow=0;dashed=0;spacingTop=3;image;image=img/lib/active_directory/databases.svg;" vertex="1" parent="1">
          <mxGeometry x="274.54" y="758" width="91.84" height="90" as="geometry" />
        </mxCell>
        <mxCell id="BlAbsp78SDBVKc19avHf-23" value="Application &amp;amp; Catalig Data Server&lt;br&gt;SQLBIPOEMSPROD\INSTANCE01" style="text;html=1;strokeColor=none;fillColor=none;align=center;verticalAlign=middle;whiteSpace=wrap;rounded=0;" vertex="1" parent="1">
          <mxGeometry x="228.54000000000002" y="738" width="170" height="20" as="geometry" />
        </mxCell>
        <mxCell id="BlAbsp78SDBVKc19avHf-24" value="DB:&lt;br&gt;DWH_POEMS&lt;br&gt;POEMS_CATALOG" style="text;html=1;strokeColor=none;fillColor=none;align=center;verticalAlign=middle;whiteSpace=wrap;rounded=0;" vertex="1" parent="1">
          <mxGeometry x="235.45999999999998" y="853.86" width="170" height="20" as="geometry" />
        </mxCell>
        <mxCell id="BlAbsp78SDBVKc19avHf-25" style="edgeStyle=orthogonalEdgeStyle;rounded=0;orthogonalLoop=1;jettySize=auto;html=1;entryX=0.75;entryY=0;entryDx=0;entryDy=0;" edge="1" parent="1" source="BlAbsp78SDBVKc19avHf-28" target="BlAbsp78SDBVKc19avHf-2">
          <mxGeometry relative="1" as="geometry" />
        </mxCell>
        <mxCell id="BlAbsp78SDBVKc19avHf-26" style="edgeStyle=orthogonalEdgeStyle;rounded=0;orthogonalLoop=1;jettySize=auto;html=1;entryX=0.5;entryY=0;entryDx=0;entryDy=0;" edge="1" parent="1" source="BlAbsp78SDBVKc19avHf-28" target="BlAbsp78SDBVKc19avHf-10">
          <mxGeometry relative="1" as="geometry" />
        </mxCell>
        <mxCell id="BlAbsp78SDBVKc19avHf-27" style="edgeStyle=orthogonalEdgeStyle;rounded=0;orthogonalLoop=1;jettySize=auto;html=1;entryX=1;entryY=0.5;entryDx=0;entryDy=0;" edge="1" parent="1" source="BlAbsp78SDBVKc19avHf-28" target="BlAbsp78SDBVKc19avHf-20">
          <mxGeometry relative="1" as="geometry">
            <Array as="points">
              <mxPoint x="360" y="442" />
              <mxPoint x="360" y="442" />
            </Array>
          </mxGeometry>
        </mxCell>
        <mxCell id="BlAbsp78SDBVKc19avHf-28" value="" style="aspect=fixed;perimeter=ellipsePerimeter;html=1;align=center;shadow=0;dashed=0;spacingTop=3;image;image=img/lib/active_directory/cluster_server.svg;" vertex="1" parent="1">
          <mxGeometry x="410" y="420" width="92.86" height="92.86" as="geometry" />
        </mxCell>
        <mxCell id="BlAbsp78SDBVKc19avHf-29" value="" style="aspect=fixed;perimeter=ellipsePerimeter;html=1;align=center;shadow=0;dashed=0;spacingTop=3;image;image=img/lib/active_directory/generic_server.svg;" vertex="1" parent="1">
          <mxGeometry x="287" y="572.68" width="60" height="107.14" as="geometry" />
        </mxCell>
        <mxCell id="BlAbsp78SDBVKc19avHf-30" value="" style="aspect=fixed;perimeter=ellipsePerimeter;html=1;align=center;shadow=0;dashed=0;spacingTop=3;image;image=img/lib/active_directory/generic_server.svg;" vertex="1" parent="1">
          <mxGeometry x="565" y="569.9999999999999" width="60" height="107.14" as="geometry" />
        </mxCell>
        <mxCell id="BlAbsp78SDBVKc19avHf-31" value="SITE:POEMS:8080&lt;br&gt;app:POEMS&lt;br&gt;app: WEB_API" style="text;html=1;strokeColor=none;fillColor=none;align=center;verticalAlign=middle;whiteSpace=wrap;rounded=0;" vertex="1" parent="1">
          <mxGeometry x="237.53999999999996" y="630" width="170" height="20" as="geometry" />
        </mxCell>
        <mxCell id="BlAbsp78SDBVKc19avHf-32" value="SITE:POEMS:8080&lt;br&gt;app:POEMS&lt;br&gt;app: WEB_API" style="text;html=1;align=center;verticalAlign=middle;whiteSpace=wrap;rounded=0;" vertex="1" parent="1">
          <mxGeometry x="510" y="629.9999999999998" width="170" height="20" as="geometry" />
        </mxCell>
        <mxCell id="BlAbsp78SDBVKc19avHf-33" value="APP Server - IIS&lt;br&gt;&lt;span style=&quot;font-size: 11.0pt ; line-height: 107% ; font-family: &amp;#34;calibri&amp;#34; , sans-serif&quot;&gt;APPBIPOEMSPROD01&lt;/span&gt;" style="text;html=1;strokeColor=none;fillColor=none;align=center;verticalAlign=middle;whiteSpace=wrap;rounded=0;" vertex="1" parent="1">
          <mxGeometry x="232" y="585" width="170" height="20" as="geometry" />
        </mxCell>
        <mxCell id="BlAbsp78SDBVKc19avHf-34" value="APP Server - IIS&lt;br&gt;&lt;span style=&quot;font-size: 11.0pt ; line-height: 107% ; font-family: &amp;#34;calibri&amp;#34; , sans-serif&quot;&gt;APPBIPOEMSPROD02&lt;/span&gt;" style="text;html=1;strokeColor=none;fillColor=none;align=center;verticalAlign=middle;whiteSpace=wrap;rounded=0;" vertex="1" parent="1">
          <mxGeometry x="502.86" y="585" width="170" height="20" as="geometry" />
        </mxCell>
        <mxCell id="BlAbsp78SDBVKc19avHf-35" value="" style="rounded=1;whiteSpace=wrap;html=1;fillColor=#dae8fc;strokeColor=#6c8ebf;" vertex="1" parent="1">
          <mxGeometry x="124.5" y="130" width="120" height="130" as="geometry" />
        </mxCell>
        <mxCell id="BlAbsp78SDBVKc19avHf-36" value="" style="aspect=fixed;perimeter=ellipsePerimeter;html=1;align=center;shadow=0;dashed=0;spacingTop=3;image;image=img/lib/active_directory/vista_client.svg;" vertex="1" parent="1">
          <mxGeometry x="150.5" y="167" width="38" height="50" as="geometry" />
        </mxCell>
        <mxCell id="BlAbsp78SDBVKc19avHf-37" value="" style="aspect=fixed;perimeter=ellipsePerimeter;html=1;align=center;shadow=0;dashed=0;spacingTop=3;image;image=img/lib/active_directory/vista_client.svg;" vertex="1" parent="1">
          <mxGeometry x="165.5" y="182" width="38" height="50" as="geometry" />
        </mxCell>
        <mxCell id="BlAbsp78SDBVKc19avHf-38" value="" style="aspect=fixed;perimeter=ellipsePerimeter;html=1;align=center;shadow=0;dashed=0;spacingTop=3;image;image=img/lib/active_directory/vista_client.svg;" vertex="1" parent="1">
          <mxGeometry x="180.5" y="197" width="38" height="50" as="geometry" />
        </mxCell>
        <mxCell id="BlAbsp78SDBVKc19avHf-39" value="" style="aspect=fixed;perimeter=ellipsePerimeter;html=1;align=center;shadow=0;dashed=0;spacingTop=3;image;image=img/lib/active_directory/users.svg;" vertex="1" parent="1">
          <mxGeometry x="132.5" y="210" width="33" height="50" as="geometry" />
        </mxCell>
        <mxCell id="BlAbsp78SDBVKc19avHf-40" value="Users from Citrix Desktop Stations" style="text;html=1;strokeColor=none;fillColor=none;align=center;verticalAlign=middle;whiteSpace=wrap;rounded=0;" vertex="1" parent="1">
          <mxGeometry x="123.5" y="142" width="120" height="20" as="geometry" />
        </mxCell>
        <mxCell id="BlAbsp78SDBVKc19avHf-41" value="" style="rounded=1;whiteSpace=wrap;html=1;fillColor=#ffffff;" vertex="1" parent="1">
          <mxGeometry x="410" y="142" width="142.54" height="125" as="geometry" />
        </mxCell>
        <mxCell id="BlAbsp78SDBVKc19avHf-42" value="Clicks NET in Citrix Desktop" style="text;html=1;strokeColor=none;fillColor=none;align=center;verticalAlign=middle;whiteSpace=wrap;rounded=0;" vertex="1" parent="1">
          <mxGeometry x="420" y="162" width="110" height="20" as="geometry" />
        </mxCell>
        <mxCell id="BlAbsp78SDBVKc19avHf-43" value="" style="endArrow=classic;html=1;exitX=0.33;exitY=1.008;exitDx=0;exitDy=0;entryX=0.5;entryY=1;entryDx=0;entryDy=0;exitPerimeter=0;" edge="1" parent="1" source="BlAbsp78SDBVKc19avHf-41" target="BlAbsp78SDBVKc19avHf-13">
          <mxGeometry width="50" height="50" relative="1" as="geometry">
            <mxPoint x="253.5" y="152" as="sourcePoint" />
            <mxPoint x="423.08706186856625" y="204.90074741740477" as="targetPoint" />
          </mxGeometry>
        </mxCell>
        <mxCell id="BlAbsp78SDBVKc19avHf-44" value="" style="aspect=fixed;perimeter=ellipsePerimeter;html=1;align=center;shadow=0;dashed=0;spacingTop=3;image;image=img/lib/active_directory/wiki_site.svg;" vertex="1" parent="1">
          <mxGeometry x="449.8399999999999" y="197" width="62.86" height="62.86" as="geometry" />
        </mxCell>
        <mxCell id="BlAbsp78SDBVKc19avHf-45" value="" style="aspect=fixed;perimeter=ellipsePerimeter;html=1;align=center;shadow=0;dashed=0;spacingTop=3;image;image=img/lib/active_directory/cluster_server.svg;" vertex="1" parent="1">
          <mxGeometry x="540" y="797.46" width="105.08" height="105.08" as="geometry" />
        </mxCell>
        <mxCell id="BlAbsp78SDBVKc19avHf-46" value="Caching&amp;nbsp; Cluster - Redis&lt;br&gt;slpmkbi-app06" style="text;html=1;strokeColor=none;fillColor=none;align=center;verticalAlign=middle;whiteSpace=wrap;rounded=0;" vertex="1" parent="1">
          <mxGeometry x="510.73" y="738" width="170" height="20" as="geometry" />
        </mxCell>
      </root>
    </mxGraphModel>
  </diagram>
</mxfile>
